<?xml version="1.0" standalone="no"?>
<!DOCTYPE svg PUBLIC "-//W3C//DTD SVG 1.1//EN" "http://www.w3.org/Graphics/SVG/1.1/DTD/svg11.dtd" >
<!--
2013-9-30: Created.
-->
<svg>
<metadata>
Created by iconfont
</metadata>
<defs>

<font id="iconfont" horiz-adv-x="1024" >
  <font-face
    font-family="iconfont"
    font-weight="500"
    font-stretch="normal"
    units-per-em="1024"
    ascent="896"
    descent="-128"
  />
    <missing-glyph />
    
    <glyph glyph-name="icon-contract" unicode="&#58948;" d="M895.354 831.795h-767.371c-35.159 0-63.947-28.789-63.947-63.947v-767.372c0-35.159 28.789-63.948 63.947-63.948h767.371c35.159 0 63.947 28.79 63.947 63.948v767.372c0 35.159-28.789 63.947-63.947 63.947zM895.354 0.475h-767.371v767.372h767.371v-767.372zM383.774 639.95h383.684v-63.947h-383.684v63.947zM255.878 639.95h63.947v-63.947h-63.947v63.947zM383.774 512.054h383.684v-63.946h-383.684v63.946zM255.878 512.054h63.947v-63.946h-63.947v63.946zM383.774 320.215h383.684v-63.949h-383.684v63.949zM255.878 320.215h63.947v-63.949h-63.947v63.949zM383.774 192.317h383.684v-63.945h-383.684v63.945zM255.878 192.317h63.947v-63.945h-63.947v63.945z"  horiz-adv-x="1024" />

    
    <glyph glyph-name="icon2" unicode="&#58893;" d="M957.134103 406.688745c0 54.122665-43.868113 97.988732-97.991802 97.988732-48.116881 0-88.015589-34.68394-96.346325-80.418564-5.838985 32.18912-27.375487 58.826803-56.33403 71.861678 0.820692-6.517437 1.38658-13.09218 1.38658-19.778462 0 0 5.469572-117.258611-78.039377-228.511437 28.817326-32.644491 71.013357-63.24851 132.985804-83.59593C965.464839 230.658589 957.134103 406.688745 957.134103 406.688745zM683.622776 479.344508c0 6.743588-0.568958 13.261025-1.360997 19.778462-9.746992 76.509535-74.922387 135.737474-154.153916 135.737474-76.312036 0-139.64548-55.089689-152.851247-127.57456-13.147438 72.484871-76.509535 127.57456-152.851247 127.57456-85.859483 0-155.512866-69.598124-155.512866-155.514913 0 0-13.177114-279.349289 308.364113-384.763131 113.263623 37.121456 184.92985 95.838765 230.324736 156.306952C689.118953 362.141156 683.622776 479.344508 683.622776 479.344508zM587.729775 262.849756c-17.001209-22.61302-38.114063-44.944632-64.325028-65.686025 11.957333 12.126178 22.61302 24.481577 31.965016 36.950564 77.359902 102.976326 72.200392 211.510228 72.200392 211.510228 0 6.1777-0.452301 12.298094-1.24434 18.303878-9.012258 70.842465-69.371974 125.647675-142.648884 125.647675-14.737656 0-28.904307-2.323928-42.222637-6.459109 22.044062 14.734586 48.455595 23.405059 76.907601 23.405059 70.897723 0 129.272225-53.046147 137.945769-121.509425 0.73678-5.837962 1.245364-11.673877 1.245364-17.682731C657.55098 467.328847 662.48434 362.367307 587.729775 262.849756z"  horiz-adv-x="1024" />

    
    <glyph glyph-name="ai-connection" unicode="&#58978;" d="M344.626 295.464c8.607 3.256 19.065 6.233 31.491 14.042 18.109 11.379 32.062 34.843-1.603 63.595-111.384 160.502-70.843 267.145-53.924 307.317-14.133 5.496-30.208 8.747-48.608 8.747h-5.787c-106.593 0-134.923-96.947-137.085-151.323-1.43-128.215 76.955-179.192 76.955-179.192s4.883-6.742 4.883-26.297c0-4.458-2.906-17.813-7.921-21.847-43.752-35.43-189.787-72.341-199.992-148.665-5.395-22.053-2.168-44.959-1.106-66.186 23.896-18.349 100.454-33.905 100.454-33.905s6.356 19.31 12.808 51.222c9.536 47.171 73.357 123.507 229.435 182.492v0zM1021.191 162.512c-10.484 76.229-160.407 113.090-205.271 148.474-5.151 4.033-8.11 17.367-8.11 21.813 0 19.539 4.972 26.27 4.972 26.27s80.384 50.909 78.882 178.961c-2.191 54.311-36.079 151.135-140.477 151.135h-5.937c-22.504 0-41.425-4.278-57.578-11.272 22.338-74.782 49.177-212.002-63.755-303.96-44.306-66.052 103.281-104.794 80.341-94.485 133.549-60.018 169.492-106.062 179.279-153.668 8.172-39.733 12.808-64.031 12.808-64.031s100.058 15.272 125.936 34.66c1.116 21.204 4.422 44.078-1.090 66.103v0zM585.685 308.824c-6.312 5.016-9.943 21.612-9.943 27.136 0 24.28 6.077 32.626 6.077 32.626-0.111-0.072 98.734 53.379 96.79 222.424-2.692 67.509-44.256 187.833-172.348 187.833h-7.285c-134.018 0-169.661-120.323-172.366-187.833-1.809-159.138 96.768-222.424 96.768-222.424s11.954-13.634 11.954-37.916c0-5.53-9.485-16.824-15.787-21.847-55.013-43.982-253.102-88.31-265.943-183.044-9.943-40.19-68.755-103.929 126.791-129.589 53.869-7.067 127.043-11.245 225.859-11.245 453.509 0 359.745 87.859 346.999 139.37-12.849 94.73-212.535 140.529-267.566 184.509v0z"  horiz-adv-x="1025" />

    
    <glyph glyph-name="gongchengxiangmu" unicode="&#58999;" d="M105.176946 480.745415 443.048093 269.590274c18.812461-11.757788 43.273573-18.24555 68.899206-18.24555 25.623587 0 50.085722 6.487761 68.898183 18.24555l337.871147 211.155141c23.0029 14.380522 36.192294 35.922141 36.192294 59.060117s-13.190417 44.680619-36.192294 59.060117L580.844459 810.02079c-37.625946 23.515576-100.172467 23.515576-137.797389 0L105.176946 598.865649c-23.0029-14.379499-36.193317-35.922141-36.193317-59.060117S82.174046 495.125937 105.176946 480.745415zM137.990283 546.374134 475.86143 757.529275c8.974395 5.622044 22.137183 8.839319 36.084846 8.839319s27.110451-3.217275 36.084846-8.839319L885.90227 546.374134c5.243421-3.270487 6.946202-6.081509 7.136537-6.325056-0.190335-0.730641-1.893116-3.540639-7.136537-6.811126L548.031123 322.081789c-17.947767-11.244089-54.221926-11.244089-72.169693 0L137.990283 533.237953c-5.243421 3.270487-6.946202 6.080485-7.136537 6.325056C131.04408 540.291602 132.746862 543.102624 137.990283 546.374134zM445.507098 120.007467c18.650779-12.43317 42.571584-18.650779 66.493413-18.650779 23.920806 0 47.842635 6.216585 66.493413 18.650779l365.279381 243.536642c13.784958 9.163707 17.514909 27.786857 8.324596 41.545208-9.136078 13.758352-27.813462 17.460674-41.544185 8.29799l-365.305987-243.536642c-17.407462-11.622712-49.085952-11.5695-66.493413 0L113.447307 413.388331c-13.757329 9.162684-32.408107 5.460362-41.544185-8.29799-9.18929-13.757329-5.459339-32.381501 8.29799-41.545208L445.507098 120.007467zM910.552693 252.372124l-365.305987-243.536642c-17.407462-11.5695-49.085952-11.5695-66.493413 0L113.447307 252.372124c-13.757329 9.162684-32.408107 5.460362-41.544185-8.29799-9.18929-13.757329-5.459339-32.381501 8.29799-41.545208l365.305987-243.536642c18.650779-12.43317 42.571584-18.650779 66.493413-18.650779 23.920806 0 47.842635 6.216585 66.493413 18.650779l365.279381 243.536642c13.784958 9.163707 17.514909 27.786857 8.324596 41.545208C942.960801 257.832486 924.283416 261.534807 910.552693 252.372124z"  horiz-adv-x="1024" />

    
    <glyph glyph-name="fangwumaimai" unicode="&#58937;" d="M745.55301 220.637867c10.922667 0 21.822578-8.100978 21.822578-18.909867 0-8.123733-8.192-16.224711-21.822578-16.224711H644.677632v-62.190933c0-8.100978-8.169244-16.224711-21.799822-16.224712-10.922667 0-21.822578 8.123733-21.822578 16.224712v62.190933H500.179854a18.568533 18.568533 0 0 0-19.114666 18.932622c0 8.100978 8.192 16.201956 19.114666 16.201956h103.606045v54.089955h-100.898134a18.568533 18.568533 0 0 0-19.069155 18.909867c0 8.123733 8.192 16.224711 19.069155 16.224711h84.536889l-87.2448 140.583822c-5.461333 8.123733-2.730667 18.932622 8.169245 21.617778 8.192 2.730667 21.822578 0 27.261155-8.100978l89.998222-140.583822 87.2448 143.291733c5.461333 8.123733 19.091911 10.831644 27.261156 5.415823 10.922667-2.707911 13.653333-13.5168 8.192-21.617778l-87.267556-143.314489h84.536889c10.922667 0 21.822578-8.100978 21.822578-18.909867 0-10.831644-8.192-16.224711-21.822578-16.224711H644.677632v-54.0672h100.898133v2.685156z m160.9728 512.591644c13.630578 0 27.261156 9.284267 27.261155 29.764267V797.696c0 16.770844 16.611556 32.836267 44.828445 32.836267s38.138311-23.825067 38.138311-40.618667v-129.661156c0-20.48 18.705067-28.808533 33.700978-28.808533 14.995911 0 29.263644 8.305778 29.263644 28.808533V789.9136c0 57.685333-42.3936 104.630044-101.102933 104.630044-58.709333 0-106.564267-46.944711-106.564267-104.630044v-22.641778c0-20.48 20.844089-34.042311 34.474667-34.042311z m307.2-296.163555L634.983765 887.967289a38.274844 38.274844 0 0 1-46.876444 0L9.342521 437.065956c-16.338489-12.743111-7.532089-34.247111-1.501867-40.118045s22.209422-13.949156 38.547911-1.2288l88.814934 68.630756 7.122489-481.120711C142.348743-78.392889 193.025365-128 255.557632-128h711.338667c62.509511 0 113.846044 49.584356 113.846044 111.047111V468.969244l100.465778-78.893511c6.940444-5.393067 29.422933-13.084444 40.891733 0 11.4688 13.1072 7.964444 34.247111-8.374044 46.967467zM1026.060743-29.582222c0-21.7088-30.902044-52.224-52.997689-52.224H257.51461c-22.072889 0-60.734578 30.492444-60.734578 52.224V506.197333l414.993067 323.128889L1026.060743 506.743467v-536.348445z"  horiz-adv-x="1228" />

    
    <glyph glyph-name="jiejue" unicode="&#58920;" d="M744.96-25.6h-409.6c-92.16 0-166.4 74.24-166.4 166.4v614.4C168.96 788.48 197.12 819.2 232.96 819.2h614.4c35.84 0 64-28.16 64-64v-614.4c0-92.16-74.24-166.4-166.4-166.4zM232.96 793.6c-23.04 0-38.4-17.92-38.4-38.4v-614.4c0-76.8 64-140.8 140.8-140.8h409.6c76.8 0 140.8 64 140.8 140.8v614.4c0 20.48-17.92 38.4-38.4 38.4h-614.4zM501.76 412.16c-10.24-10.24-23.04-10.24-33.28 0l-120.32 120.32c-10.24 10.24-10.24 23.04 0 33.28s23.04 10.24 33.28 0L486.4 460.8l217.6 194.56c10.24 10.24 23.04 10.24 33.28 0s10.24-23.04 0-33.28l-235.52-209.92zM719.36 286.72H355.84c-12.8 0-23.04 10.24-23.04 23.04s10.24 23.04 23.04 23.04h363.52c12.8 0 23.04-10.24 23.04-23.04s-10.24-23.04-23.04-23.04z m-363.52-89.6h363.52c12.8 0 23.04-10.24 23.04-23.04s-10.24-23.04-23.04-23.04H355.84c-12.8 0-23.04 10.24-23.04 23.04s10.24 23.04 23.04 23.04z"  horiz-adv-x="1024" />

    
    <glyph glyph-name="tianping" unicode="&#58887;" d="M644.096 37.888h-267.776c-20.992 0-38.4-11.264-38.4-24.576v-4.608c0-13.824 16.896-24.576 38.4-24.576h267.776c20.992 0 38.4 11.264 38.4 24.576v4.608c0 13.312-16.896 24.576-38.4 24.576zM595.968 95.232h-55.296V633.856H768v0.512c3.584 1.024 6.144 4.096 6.144 8.192 0 4.608-3.584 8.192-8.192 8.192h-210.944c4.096 4.096 6.656 9.728 6.656 15.872 0 12.288-9.728 22.016-22.016 22.016H481.28c-12.288 0-22.016-9.728-22.016-22.016 0-6.144 2.56-11.776 6.656-15.872h-196.608c-4.608 0-8.192-3.584-8.192-8.192 0-4.608 3.584-8.192 8.192-8.192h212.992V95.232h-59.904c-13.824 0-24.576-11.264-24.576-24.576v-4.608c0-13.824 11.264-24.576 24.576-24.576h173.568c13.824 0 24.576 11.264 24.576 24.576v4.608c0.512 13.824-10.752 24.576-24.576 24.576zM438.272 341.504v2.048h-1.024l-171.52 294.4-172.032-294.4h-1.536v-2.048c2.048-91.648 78.848-164.864 173.056-164.864s171.008 73.216 173.056 164.864z m-173.056 268.8L418.304 348.16h-306.688l153.6 262.144zM512.512 692.736c24.064 0 43.52 17.408 43.52 38.4 0 21.504-19.456 59.392-43.52 59.392s-43.52-38.4-43.52-59.392 19.456-38.4 43.52-38.4zM929.28 341.504v2.048h-1.024l-171.52 294.4-172.032-294.4h-1.024v-2.048c2.048-91.648 78.848-164.864 173.056-164.864 93.696 0 169.984 73.216 172.544 164.864z m-173.568 268.8L908.8 348.16h-306.688l153.6 262.144z"  horiz-adv-x="1024" />

    
    <glyph glyph-name="renshensunhaipeichang" unicode="&#58889;" d="M432.048 590.87c31.309 0 56.494 25.346 56.494 55.916 0 31.006-25.202 55.916-56.494 55.916-31.178 0-56.536-24.909-56.536-55.916 0-30.587 25.357-55.916 56.536-55.916m331.611-382.633L667.28 372.83c-5.967 9.898-16.447 15.527-27.311 15.834H496.154l0.229 50.336h103.524c13.985 0.824 25.512 10.57 25.512 24.74 0 14.047-11.191 26.517-25.512 26.994H494.232l-3.67 39.134c-2.092 29.333-27.565 52.446-57.565 50.812-30.222-1.658-53.02-27.391-51.549-57.096l9.916-169.743c2.468-29.784 27.654-54.904 57.451-54.904h183.266l74.889-124.2c8.975-14.541 29.723-20.493 45.353-11.225 15.505 9.315 20.131 28.527 11.336 44.725M468.384 110.88c-92.7 0-167.899 74.236-167.899 166.108 0 50.319 23.052 95.178 58.907 125.7l-3.09 51.937c-60.051-37.12-100.287-102.353-100.287-177.637 0-115.984 94.99-210.119 212.37-210.119 86.397 0 160.247 51.435 193.435 124.66l-29.861 51.128C615.967 167.603 549.05 110.88 468.384 110.88"  horiz-adv-x="1024" />

    
    <glyph glyph-name="dunpai" unicode="&#58894;" d="M477.4-92.4c22.4-7.7 46.8-7.7 69.2 0 152.8 52.4 208 95.2 208 95.2 158.8 108.3 160.2 250.5 160.2 250.5V702.1c0 22-17.9 40.9-39.9 41.7-112.7 4-278.8 86.8-339.6 119.2-14.6 7.8-32.1 7.8-46.7 0C427.8 830.7 261.8 747.8 149 743.8c-22-0.8-39.9-19.7-39.9-41.7v-448.8s1.4-142.2 160.2-250.5c0.1 0 55.3-42.8 208.1-95.2zM483.1-11.1c18.7-6.4 39.1-6.4 57.8 0 127.6 43.7 173.7 79.5 173.7 79.5 132.6 90.4 133.8 209.2 133.8 209.2V647.4c0 18.4-15 34.1-33.3 34.8-94.1 3.3-232.8 72.5-283.5 99.5-12.2 6.5-26.8 6.5-39 0-50.7-27-189.4-96.2-283.5-99.5-18.3-0.6-33.3-16.4-33.3-34.8v-369.8s1.2-118.8 133.8-209.2c-0.2 0 45.9-35.8 173.5-79.5zM512 786.6c-6.7 0-13.4-1.6-19.5-4.9-50.7-27-189.4-96.2-283.5-99.5-18.3-0.6-33.3-16.4-33.3-34.8v-369.8s1.2-118.8 133.8-209.2c0 0 46.1-35.8 173.7-79.5 9.3-3.2 19.1-4.8 28.9-4.8V786.6zM848.4 332.5v-54.9s-1.2-118.8-133.8-209.2c0 0-22.1-17.2-78-42.2l47.4-63.4c55.2 27.4 104.2 59 140.5 99.1 59.7 67.2 84.1 126.8 89.8 182.5l-65.9 88.1zM848.4 277.6v54.9L699.1 532.1 512 358v-165.1l124.6-166.6c55.9 25.1 78 42.2 78 42.2 132.6 90.3 133.8 209.1 133.8 209.1zM487.4 335.1l-137.9 75.1L512 192.9V358zM482.4 290.5c-7.6 0-15.3 2.9-21.1 8.7L356 404.6c-11.7 11.7-11.7 30.6 0 42.2 11.7 11.7 30.6 11.7 42.2 0l84.2-84.2 170.2 170.2c11.7 11.7 30.6 11.7 42.2 0 11.7-11.7 11.7-30.6 0-42.2L503.5 299.3c-5.8-5.9-13.4-8.8-21.1-8.8z"  horiz-adv-x="1024" />

    
    <glyph glyph-name="pinggu" unicode="&#58902;" d="M972.682 525.571c-25.582 25.582-59.76 39.704-96.188 39.704-36.43 0-70.607-14.122-96.189-39.704L387.364 132.528c-4.912-4.912-8.186-11.051-9.516-17.805l-35.713-178.665c-2.251-11.461 1.33-23.331 9.516-31.518a34.867 34.867 0 0 1 24.662-10.232c2.25 0 4.604 0.204 6.856 0.716l178.665 35.61c6.754 1.33 12.996 4.707 17.805 9.517l393.043 393.043c25.582 25.582 39.704 59.76 39.704 96.189s-14.122 70.606-39.704 96.188zM923.36 476.25c25.787-25.787 25.787-67.741 0-93.528l-8.8-8.8-93.528 93.528 8.8 8.8c25.787 25.787 67.741 25.787 93.528 0zM537.787-2.955l-116.962-23.433 23.331 117.064 327.451 327.45 93.528-93.528-327.348-327.553z m342.697 120.44c-19.237 0-34.894-15.655-34.894-34.893v-118.496H730.266c-19.237 0-34.894-15.657-34.894-34.894 0-19.238 15.657-34.894 34.894-34.894h150.116c19.238 0 34.894 15.656 34.894 34.894v153.39c0.102 19.238-15.554 34.894-34.792 34.894z m-671.376-153.39H81.505V803.906h763.983v-111.743c0-19.238 15.656-34.894 34.894-34.894s34.894 15.656 34.894 34.894V838.798c0 19.238-15.656 34.894-34.894 34.894H46.611c-19.238 0-34.894-15.656-34.894-34.894v-909.596c0-19.238 15.656-34.894 34.894-34.894h162.497c19.238 0 34.894 15.656 34.894 34.894 0 19.237-15.554 34.894-34.894 34.894z m265.235 440.013L721.16 650.924c13.61 13.61 13.61 35.712 0 49.322s-35.712 13.61-49.322 0L449.682 478.193l-91.789 91.789c-13.61 13.61-35.712 13.61-49.322 0L184.447 445.96c-13.61-13.61-13.61-35.713 0-49.322 6.856-6.856 15.758-10.233 24.661-10.233 8.903 0 17.907 3.377 24.661 10.233l99.361 99.36 91.789-91.788c13.712-13.712 35.814-13.712 49.424-0.102z"  horiz-adv-x="1024" />

    
    <glyph glyph-name="baoxianxinxi" unicode="&#58921;" d="M929.021 81H815v-114.021A29.979 29.979 0 0 0 785.021-63h-0.042A29.979 29.979 0 0 0 755-33.021V81H640.979A29.979 29.979 0 0 0 611 110.979v0.042A29.979 29.979 0 0 0 640.979 141H755V255.021A29.979 29.979 0 0 0 784.979 285h0.042A29.979 29.979 0 0 0 815 255.021V141h114.021A29.979 29.979 0 0 0 959 111.021v-0.042A29.979 29.979 0 0 0 929.021 81zM845 414a30 30 0 0 0-30 30V691a20 20 0 0 1-20 20h-63a30 30 0 0 0 0 60h93a50 50 0 0 0 50-50v-277a30 30 0 0 0-30-30z m-121 85.021v-0.011a29.979 29.979 0 0 0-29.979-29.979H245.979A29.979 29.979 0 0 0 216 499.01v0.011A29.979 29.979 0 0 0 245.979 529h448.042A29.979 29.979 0 0 0 724 499.021zM560 651H380a90 90 0 0 0 0 180h180a90 90 0 0 0 0-180z m0 120H380a30 30 0 0 1 0-60h180a30 30 0 0 1 0 60z m-352-60h-63a20 20 0 0 1-20-20v-674a20 20 0 0 1 20-20h411a30 30 0 0 0 0-60H115a50 50 0 0 0-50 50V721a50 50 0 0 0 50 50h93a30 30 0 0 0 0-60z m37.979-472.031h221.23a29.978 29.978 0 0 0 29.978-29.979v-0.011A29.978 29.978 0 0 0 467.209 179h-221.23A29.979 29.979 0 0 0 216 208.979v0.011a29.979 29.979 0 0 0 29.979 29.979z m0 85.031A29.979 29.979 0 0 0 216 353.979v0.042A29.979 29.979 0 0 0 245.979 384h335.042A29.979 29.979 0 0 0 611 354.021v-0.042A29.979 29.979 0 0 0 581.021 324H245.979z"  horiz-adv-x="1024" />

    
    <glyph glyph-name="zhengjian" unicode="&#59245;" d="M816 784H208c-88 0-160-72-160-160v-480c0-88 72-160 160-160h608c88 0 160 72 160 160V624c0 88-72 160-160 160z m96-640c0-52.8-43.2-96-96-96H208c-52.8 0-96 43.2-96 96V624c0 52.8 43.2 96 96 96h608c52.8 0 96-43.2 96-96v-480zM459.2 406.4c22.4 22.4 36.8 54.4 36.8 89.6 0 70.4-57.6 128-128 128s-128-57.6-128-128c0-35.2 14.4-67.2 36.8-89.6C225.6 376 192 320 192 256v-57.6c0-30.4 24-54.4 52.8-54.4h246.4c28.8 0 52.8 24 52.8 54.4V256c0 64-33.6 120-84.8 150.4zM304 496c0 35.2 28.8 64 64 64s64-28.8 64-64-28.8-64-64-64-64 28.8-64 64z m176-288H256v48c0 62.4 49.6 112 112 112s112-49.6 112-112v-48z m320 208H640c-17.6 0-32-14.4-32-32s14.4-32 32-32h160c17.6 0 32 14.4 32 32s-14.4 32-32 32z m0 160H608c-17.6 0-32-14.4-32-32s14.4-32 32-32h192c17.6 0 32 14.4 32 32s-14.4 32-32 32z m0-320H672c-17.6 0-32-14.4-32-32s14.4-32 32-32h128c17.6 0 32 14.4 32 32s-14.4 32-32 32z"  horiz-adv-x="1024" />

    
    <glyph glyph-name="zhuanrang" unicode="&#58880;" d="M513.69895077 22.39285702999996c-156.69642893 0-289.28571405 101.25-338.70535702 243.48214297l18.08035703-10.84821405c6.02678595-3.61607107 13.25892892-1.20535702 15.66964297 4.8214281l6.02678595 10.84821487c3.61607107 6.02678595 1.20535702 13.25892892-4.82142892 16.875l-61.47321405 36.16071405c-3.61607107 2.41071406-8.4375 2.41071406-12.0535719 0-3.61607107 0-7.23214297-2.41071406-9.64285703-6.02678595L91.82395078 256.23214298000005c-3.61607107-6.02678595-1.20535702-13.25892892 4.82142892-16.87500001l9.64285702-6.02678595c6.02678595-3.61607107 13.25892892-1.20535702 15.66964298 4.82142892L136.42216482 263.46428595C189.4578797 101.94642893000002 338.92216482-13.76785702999996 513.69895077-13.76785702999996c189.24107107 0 347.14285703 133.79464297 385.71428595 313.39285703h-37.36607189C824.68109375 140.51785702999996 682.44895077 22.39285702999996 513.69895077 22.39285702999996z m415.84821406 496.60714297l-9.64285703 6.02678595c-6.02678595 3.61607107-13.25892892 1.20535702-15.66964297-4.82142892l-12.05357108-21.69642811C842.76145078 662.4375 692.0918078 781.76785703 513.69895077 781.76785703 324.4578797 781.76785703 166.55609375 647.97321405 127.98466482 468.375h37.36607191C202.7168078 627.48214297 344.94895077 745.60714297 513.69895077 745.60714297c162.72321405 0 298.92857107-108.48214298 343.52678595-257.94642892l-22.90178594 13.25892892c-6.02678595 3.61607107-13.25892892 1.20535702-15.66964298-4.82142891l-6.02678512-10.84821406c-3.61607107-6.02678595-1.20535702-13.25892892 4.8214281-16.875l61.47321404-36.16071405c3.61607107-2.41071406 8.4375-2.41071406 12.0535719 0 3.61607107 0 7.23214297 2.41071406 9.64285703 6.02678512l34.95535702 61.47321488c1.20535702 8.4375 0 15.66964297-6.02678595 19.28571405z m-298.92857108 4.82142892l-8.4375 8.43750001c-4.82142892 4.82142892-12.05357108 4.82142892-16.875-1e-8l-85.58035702-86.78571487-85.58035703 86.78571488c-4.82142892 4.82142892-12.05357108 4.82142892-16.875 0l-8.4375-8.4375c-4.82142892-4.82142892-4.82142892-12.05357108 0-16.875l73.52678513-74.73214298h-63.8839281c-6.02678595 0-12.05357108-4.82142892-12.0535719-12.05357189v-12.05357108c0-7.23214297 4.82142892-12.05357108 12.0535719-12.0535719H501.64537969v-36.16071405h-71.11607188c-6.02678595 0-12.05357108-4.82142892-12.05357108-12.05357108v-12.05357189c0-7.23214297 4.82142892-12.05357108 12.05357107-12.05357108H501.64537969v-84.375c0-7.23214297 4.82142892-12.05357108 12.05357108-12.0535719h12.05357191c6.02678595 0 12.05357108 4.82142892 12.05357107 12.0535719v84.375h71.11607107c6.02678595 0 12.05357108 4.82142892 12.0535719 12.05357108v12.05357189c0 7.23214297-4.82142892 12.05357108-12.0535719 12.05357108H537.80609375v36.16071405h83.16964298c6.02678595 0 12.05357108 4.82142892 12.05357107 12.0535719v12.05357108c0 7.23214297-4.82142892 12.05357108-12.05357108 12.05357189h-63.88392892l73.52678595 74.73214298c4.82142892 4.82142892 4.82142892 12.05357108 0 16.875z"  horiz-adv-x="1026" />

    
    <glyph glyph-name="qian" unicode="&#58888;" d="M512 896C229.232 896 0 666.768 0 384s229.232-512 512-512 512 229.232 512 512S794.768 896 512 896z m163.648-518.656v-48.528h-118.304v-43.2h118.304v-48.512h-118.304v-112.992h-97.04v112.992h-116.976v48.512h116.976v43.2h-116.976v48.528H438.4l-113.6 225.984h101.024l43.872-107.68c12.544-33.248 25.168-66.464 39.104-99.696h3.328q19.936 50.848 39.872 99.696l43.872 107.68h97.728L579.2 377.344z"  horiz-adv-x="1024" />

    
    <glyph glyph-name="bingtu" unicode="&#59085;" d="M467.6 357.1l252.8-252.8c-32.7-33.3-70.9-59.3-114.6-77.8-43.7-18.5-89.8-27.8-138.2-27.8-64.5 0-124 15.9-178.5 47.7-54.5 31.7-97.7 74.8-129.4 129.4-31.8 54.5-47.7 114-47.7 178.5 0 64.4 15.9 123.9 47.7 178.5 31.7 54.4 74.8 97.6 129.4 129.4 54.4 31.7 113.9 47.7 178.5 47.7v-352.8z m414.9 56.5H526.8V769.3c64.4 0 123.9-15.9 178.5-47.7 54.4-31.8 97.6-74.9 129.4-129.4 31.7-54.6 47.8-114.1 47.8-178.6z m-328.4-59.2H912c0-48.5-9.3-94.5-27.8-138.2-18.5-43.7-44.4-81.9-77.8-114.6L554.1 354.4z"  horiz-adv-x="1024" />

    
    <glyph glyph-name="jinrongqianbi" unicode="&#58899;" d="M512 896a512 512 0 1 1 512-512A512 512 0 0 1 512 896z m0-989.090909a477.090909 477.090909 0 1 0 477.090909 477.090909 477.090909 477.090909 0 0 0-477.090909-477.090909zM764.509091 240.872727a17.454545 17.454545 0 0 1-18.327273-2.734545l-0.814545-0.64-0.814546-0.930909a17.454545 17.454545 0 0 1-3.083636-4.596364v-0.465454a316.218182 316.218182 0 0 0-19.956364-39.098182c-37.410909-62.312727-90.996364-98.501818-148.770909-98.501818-90.24 0-166.574545 88.552727-190.487273 209.454545h155.869091a17.454545 17.454545 0 0 1 0 34.909091H376.785455a421.236364 421.236364 0 0 0 0 91.170909H538.181818a17.454545 17.454545 0 0 1 0 34.909091H382.196364c23.912727 120.843636 100.247273 209.454545 190.429091 209.454545 68.887273 0 131.956364-51.432727 168.727272-137.6a17.454545 17.454545 0 0 1 32.058182 13.847273c-42.356364 99.432727-117.352727 158.778182-200.727273 158.778182C464 708.770909 372.363636 605.090909 346.705455 464.407273H266.705455a17.454545 17.454545 0 1 1 0-34.909091h75.054545a444.101818 444.101818 0 0 1 0-91.054546h-75.054545a17.454545 17.454545 0 0 1 0-34.909091h80c25.774545-140.218182 117.352727-244.363636 225.978181-244.363636 49.570909 0 96.116364 20.945455 134.690909 58.821818a309.003636 309.003636 0 0 1 66.036364 99.956364 17.454545 17.454545 0 0 1-8.901818 22.923636z"  horiz-adv-x="1024" />

    
    <glyph glyph-name="jianshe-" unicode="&#59474;" d="M1004 503.2H20c-7.2 0-12.8 4.8-15.2 11.2-2.4 6.4 0 13.6 6.4 17.6L503.2 872.8c5.6 4 12.8 4 18.4 0l492-340.8c5.6-4 8-11.2 6.4-17.6-2.4-7.2-8.8-11.2-16-11.2zM70.4 534.4h882.4L512 840.8 70.4 534.4zM800.8 574.4H223.2c-3.2 0-6.4 2.4-7.2 5.6-0.8 3.2 0 7.2 3.2 8.8l288.8 200.8c2.4 1.6 6.4 1.6 8.8 0l288.8-200.8c3.2-1.6 4-5.6 3.2-8.8-0.8-3.2-4-5.6-8-5.6z m-552.8 16h528L512 772.8 248 590.4zM573.6 3.2H450.4c-8.8 0-16 7.2-16 16V518.4c0 8.8 7.2 16 16 16h122.4c8.8 0 16-7.2 16-16v-500c0.8-8-6.4-15.2-15.2-15.2z m-107.2 31.2h91.2V503.2H466.4v-468.8zM526.4 50.4c-4 0-8 3.2-8 8V479.2c0 4 3.2 8 8 8 4 0 8-3.2 8-8v-420.8c0-4-3.2-8-8-8zM255.2 3.2H132.8c-8.8 0-16 7.2-16 16V518.4c0 8.8 7.2 16 16 16h122.4c8.8 0 16-7.2 16-16v-500c0-8-7.2-15.2-16-15.2z m-106.4 31.2H240V503.2H148.8v-468.8zM208.8 50.4c-4 0-8 3.2-8 8V479.2c0 4 3.2 8 8 8 4 0 8-3.2 8-8v-420.8c0-4-4-8-8-8zM891.2 3.2H768.8c-8.8 0-16 7.2-16 16V518.4c0 8.8 7.2 16 16 16h122.4c8.8 0 16-7.2 16-16v-500c0-8-7.2-15.2-16-15.2zM784 34.4h91.2V503.2H784v-468.8zM844.8 50.4c-4 0-8 3.2-8 8V479.2c0 4 3.2 8 8 8 4 0 8-3.2 8-8v-420.8c-0.8-4-4-8-8-8zM972-108H52c-8.8 0-16 7.2-16 16v110.4c0 8.8 7.2 16 16 16h920.8c8.8 0 16-7.2 16-16v-110.4c-0.8-8.8-8-16-16.8-16z m-904 32h888.8v79.2H68v-79.2zM512 614.4c-28.8 0-52 23.2-52 52s23.2 52 52 52 52-23.2 52-52-23.2-52-52-52z m0 88c-20 0-36-16-36-36s16-36 36-36 36 16 36 36-16 36-36 36z"  horiz-adv-x="1024" />

    
    <glyph glyph-name="fengxianxinxi" unicode="&#58929;" d="M512 384m-512 0a512 512 0 1 1 1024 0 512 512 0 1 1-1024 0ZM512 126.424615A55.138462 55.138462 0 0 0 551.384615 108.307692a54.350769 54.350769 0 0 0 0-78.76923 57.501538 57.501538 0 0 0-78.76923 0 54.350769 54.350769 0 0 0 0 78.76923 55.138462 55.138462 0 0 0 39.384615 18.116923zM551.384615 684.110769l-9.452307-472.615384h-64.59077l-9.452307 472.615384z"  horiz-adv-x="1024" />

    
    <glyph glyph-name="house" unicode="&#58901;" d="M848 356.352a32.128 32.128 0 0 0 24.874667-31.189333v-412.885334a32.085333 32.085333 0 0 0-32-32h-253.824a32.085333 32.085333 0 0 0-32 32v217.557334H470.613333v-217.557334a32.085333 32.085333 0 0 0-32-32H183.125333a32.085333 32.085333 0 0 0-32 32v412.885334a31.957333 31.957333 0 0 0 63.488 5.717333c0.426667-2.517333 0.384-3.157333 0.512-5.717333v-380.885334H406.613333v217.557334a32.085333 32.085333 0 0 0 32 32h148.437334a32.170667 32.170667 0 0 0 32-32v-217.557334h189.824v380.885334a32.256 32.256 0 0 0 33.450666 31.957333c2.858667-0.256 2.858667-0.256 5.674667-0.768zM774.698667 628.010667l228.224-226.730667c0.768-0.853333 1.578667-1.664 2.304-2.56a31.786667 31.786667 0 0 0 7.04-22.613333 32.341333 32.341333 0 0 0-32.682667-29.482667 32.170667 32.170667 0 0 0-16.384 4.949333c-2.602667 1.664-3.114667 2.261333-5.418667 4.309334L507.690667 803.157333 57.386667 355.882667l-2.56-2.304c-0.938667-0.64-1.834667-1.365333-2.816-2.005334a32.170667 32.170667 0 0 0-23.296-4.394666 32.341333 32.341333 0 0 0-25.856 32.384 32.170667 32.170667 0 0 0 5.077333 16.341333c1.664 2.602667 2.304 3.114667 4.352 5.418667L485.12 870.954667c0.853333 0.725333 1.621333 1.536 2.517333 2.218666a31.701333 31.701333 0 0 0 11.818667 6.016c2.858667 0.768 3.626667 0.725333 6.570667 1.024h3.328c1.109333-0.128 2.218667-0.170667 3.328-0.341333a31.744 31.744 0 0 0 12.373333-4.736c2.474667-1.621333 2.986667-2.218667 5.205333-4.181333l179.541334-178.432c-0.042667 28.928 0.213333 57.856 0.853333 86.741333a32 32 0 0 0 62.037333 9.557333c1.152-3.072 1.92-9.557333 1.92-9.557333l0.085334-151.253333z"  horiz-adv-x="1024" />

    
    <glyph glyph-name="yiliaohangyedeICON-" unicode="&#58935;" d="M916.41375605 622.3244958099999h-18.38244346v92.17112494c0 30.29219555-22.26605827 66.2803595-49.45136198 79.87301135 0 0-97.86709333 48.93354667-337.22721975 48.93354666S173.99605728 794.3686321 173.99605728 794.3686321c-27.1853037-13.59265185-49.45136197-49.58081581-49.45136197-79.87301135v-92.17112494h-18.38244346a55.40623803 55.40623803 0 0 1-55.2767842-55.14733038v-55.27678419a55.40623803 55.40623803 0 0 1 55.2767842-55.27678421h18.38244346v-377.48736a55.53569185 55.53569185 0 0 1 36.89434074-52.04043851v-30.81001087a73.65922765 73.65922765 0 1 1 147.31845531 0v27.57366518h405.06102517v-27.57366518a73.65922765 73.65922765 0 0 1 147.31845532 0v30.81001087a55.40623803 55.40623803 0 0 1 36.89434074 52.04043851V456.62359703h18.38244346a55.40623803 55.40623803 0 0 1 55.2767842 55.27678421v55.27678419a55.40623803 55.40623803 0 0 1-55.2767842 55.14733038z m-589.27382123 128.93601184a18.51189728 18.51189728 0 0 0 18.38244345 18.38244346h331.53125136a18.51189728 18.51189728 0 0 0 18.38244346-18.38244346v-36.7648869a18.51189728 18.51189728 0 0 0-18.38244346-18.51189728H345.52237827a18.51189728 18.51189728 0 0 0-18.38244345 18.51189728z m-82.85044939-653.74182715a46.08556247 46.08556247 0 1 0 46.08556247 46.08556247 46.2150163 46.2150163 0 0 0-46.08556247-46.08556247z m533.99703704 0a46.08556247 46.08556247 0 1 0 46.08556247 46.08556247 46.08556247 46.08556247 0 0 0-46.08556247-46.08556247z m46.08556247 211.78646123a18.51189728 18.51189728 0 0 0-18.38244346-18.38244346H216.71582025a18.51189728 18.51189728 0 0 0-18.51189728 18.38244346V603.94205235a18.51189728 18.51189728 0 0 0 18.51189728 18.38244346h589.27382123a18.51189728 18.51189728 0 0 0 18.38244346-18.38244346z m0 0"  horiz-adv-x="1024" />

    
    <glyph glyph-name="fengxian" unicode="&#58980;" d="M64.512 384c0-247.296 200.192-447.488 447.488-447.488 247.296 0 447.488 200.192 447.488 447.488 0 247.296-200.192 447.488-447.488 447.488S64.512 631.296 64.512 384zM671.232 438.272H542.72l-1.536 264.192-188.416-372.224H481.28l1.536-264.192 188.416 372.224z"  horiz-adv-x="1024" />

    
    <glyph glyph-name="baoxian" unicode="&#58936;" d="M510.688203 454.779993H571.487134v-38.44135h-60.798931zM464.262003 385.654005c-5.475326 3.422079-8.098919 8.327058-8.09892 14.829007 0 7.642642 2.851732 12.433552 8.555197 14.37273 1.711039 0.684416 5.019049 1.026624 9.809959 1.254763v38.669488h-8.669266c-19.505848 0-33.194163-3.19394-41.064944-9.58182-13.117968-10.608444-19.619918-24.867105-19.619917-42.890052 0-9.353682 1.939178-18.137017 5.703464-26.464075 3.764287-8.212989 9.011474-14.714938 15.741562-19.391779 5.475326-3.992425 11.29286-6.616019 17.56667-8.09892 6.273811-1.482901 15.399354-2.167316 27.148491-2.167316h3.19394v37.186588c-5.133118 0.342208-8.555197 1.140693-10.266236 2.281386zM561.905314 370.824997c-10.836582 7.870781-25.66559 11.863206-44.372954 11.863206h-6.844157v-36.84438c5.931603-0.342208 10.038097-1.026624 11.977275-2.053247 5.931603-2.737663 8.897404-7.756712 8.897405-15.171215 0-9.125543-4.448702-14.144592-13.346107-15.171216-1.825109-0.114069-4.334633-0.228139-7.528573-0.228138v-38.55542c17.908878 0 30.798708 1.368831 38.44135 4.106495 7.756712 2.737663 14.37273 8.327058 19.733987 16.996324 7.414504 10.836582 11.064721 22.813858 11.064721 35.817756 0.114069 17.338532-5.931603 30.4565-18.022947 39.239835zM407.683636 313.220007h66.730534v-38.44135h-66.730534zM492.551186 274.778657V204.740114v70.038543h-18.137016V204.740114h36.274033v70.038543h-18.137017zM492.551186 524.818536v-70.038543h18.137017v70.038543h-36.274033v-70.038543h18.137016zM492.551186 346.071962h8.669266c3.536148 0 6.730088-0.114069 9.467751-0.228139V382.688203h-18.137017v-36.616241zM474.41417 313.220007h18.137016v-38.44135h-18.137016zM492.551186 382.688203h-4.220563c-5.589395 0-10.152167 0.228139-13.916453 0.570347v-37.186588h18.137016V382.688203zM496.087334 313.220007h-3.536148v-38.44135h18.137017v38.555419c-3.878356-0.114069-8.783335-0.114069-14.600869-0.114069zM483.88192 416.338643h8.669266v38.44135h-18.137016v-38.669488c2.623594 0.228139 5.817534 0.228139 9.46775 0.228138zM492.551186 454.779993h18.137017v-38.44135h-18.137017zM492.323048 0.556088c-110.989417 0-212.282945 172.358694-309.35591 526.657903-2.053247 7.300434 1.026624 15.171215 7.528573 19.049571l293.158071 180.229476c5.475326 3.422079 12.433552 3.422079 17.908878 0l293.158071-180.229476c6.273811-3.878356 9.353682-11.29286 7.756711-18.479224-0.342208-1.254762-30.570569-130.381196-81.787679-258.252869-71.065167-176.921466-147.149382-267.492481-226.313468-268.975381h-2.053247zM219.241172 523.791913c48.479447-174.526011 98.669934-304.45093 149.202629-386.352679 42.091567-68.213434 83.726858-102.776429 123.879247-102.776429h1.368831c33.764509 0.684416 69.011919 25.779659 104.943745 74.601314 30.4565 41.521221 60.798931 99.582489 90.000669 172.586833 41.293082 103.118637 68.783781 207.149827 77.453046 241.712822L492.551186 691.815974 219.241172 523.791913z"  horiz-adv-x="1024" />

    
    <glyph glyph-name="hands-fill" unicode="&#58916;" d="M781.824 354.81600000000003L603.136 533.504s-6.656 3.584-11.264 0c-24.064-24.576-43.52-44.032-59.392-57.856-15.872-13.824-37.888-22.528-56.32-24.576-18.432-1.536-43.52-5.12-69.632 22.528-2.048 2.048-3.072 5.12-3.072 8.192s1.024 5.632 3.072 7.68l120.32 119.808c-10.24 9.728-16.896 16.384-19.968 18.944-28.672 25.088-62.976 41.472-90.112 55.296l-5.12 2.56c-4.096 2.56-8.704 4.608-13.312 6.656l-4.608 2.048-0.512 0.512c-14.848 7.68-35.84 18.432-55.808 18.432-14.336 0-26.624-5.632-37.888-16.384L133.12 529.9200000000001c-30.72-30.72-29.184-56.32-27.648-71.168 0.512-2.56 0.512-4.608 0.512-5.632 1.024-12.288 12.8-28.16 32.256-51.2 3.584-4.096 7.68-8.704 10.752-12.8 11.264-13.824 19.456-27.648 27.648-40.96l3.584-6.144c13.824-22.528 29.696-48.64 61.952-80.384L450.56 52.224000000000046c14.336-14.336 33.28-24.064 52.736-26.624 2.56-0.512 6.144-0.512 9.216-0.512 15.872 0 30.208 5.632 39.936 15.872l4.608 4.608c18.432 18.432-7.168 45.568-7.168 45.568l-84.992 84.992c-2.048 2.048-3.584 5.12-3.584 8.192s1.024 6.144 3.584 8.192c2.048 2.048 5.12 3.584 8.192 3.584s6.144-1.024 8.192-3.584l84.992-84.992s30.72-27.136 54.784-11.776c5.12 4.608 10.24 9.216 15.872 14.336 19.456 22.016-3.584 50.176-3.584 50.176l-92.16 92.16c-2.048 2.048-3.584 5.12-3.584 8.192s1.024 6.144 3.584 8.192c2.048 2.048 5.12 3.584 8.192 3.584s6.144-1.024 8.192-3.584l97.28-96.768s23.552-25.088 45.568-13.824l6.144 5.12 18.432 16.384s1.024 1.536 2.048 2.56c18.432 24.576-3.072 51.2-3.072 51.2L622.592 334.84799999999996c-2.048 2.048-3.584 5.12-3.584 8.192s1.024 6.144 3.584 8.192c2.048 2.048 5.12 3.584 8.192 3.584s6.144-1.024 8.192-3.584l80.896-80.896s31.232-29.696 65.024-8.192c8.192 8.192 14.848 14.848 17.408 28.16 6.144 24.576-2.56 46.592-20.48 64.512zM894.976 528.896l-192 192c-43.52 43.52-91.136 47.616-126.976 11.776l-74.24-74.24-131.584-131.584c-10.24-9.728-10.24-26.112-0.512-36.352 31.744-28.16 70.656-37.888 70.656-37.888-10.752 3.072-22.016 9.216-33.28 20.992-2.048 2.048-3.072 5.12-3.072 8.192s1.024 5.632 3.072 7.68l20.48 20.48 110.592 110.592 75.264 75.264c9.216 9.216 15.872 9.216 20.48 8.704 6.144-1.024 16.896-5.12 32.256-20.48l192-192c17.92-17.92 34.304-43.52 13.312-64.512L832 388.096a25.958 25.958 0 0 1 0-36.864c5.12-5.12 11.776-7.68 18.432-7.68s13.312 2.56 18.432 7.68l39.424 39.424c38.4 38.4 33.28 91.648-13.312 138.24z"  horiz-adv-x="1024" />

    


  </font>
</defs>
</svg>
